<svg xmlns="http://www.w3.org/2000/svg" viewBox="0 0 96 96" role="img" aria-labelledby="title desc">
  <title id="title">Boosnur Genetics logo mark</title>
  <desc id="desc">Circular seedling and field logo in deep green and gold.</desc>
  <circle cx="48" cy="48" r="42" fill="#fbfaf6" stroke="#12372c" stroke-width="4"/>
  <path d="M22 65c15.5-7.2 34.5-9.2 56-6.1" fill="none" stroke="#12372c" stroke-width="4" stroke-linecap="round"/>
  <path d="M27 73c13.8-5 29.5-6.5 47-4.3" fill="none" stroke="#c99743" stroke-width="3.6" stroke-linecap="round"/>
  <path d="M48 62V31" fill="none" stroke="#12372c" stroke-width="4.4" stroke-linecap="round"/>
  <path d="M46.8 44.6C31.4 44 24.2 36.1 23.2 22.8c15.7-.7 24.3 6.2 23.6 21.8Z" fill="#c99743"/>
  <path d="M49.2 52.8c15.4-.6 22.6-8.5 23.6-21.8-15.7-.7-24.3 6.2-23.6 21.8Z" fill="#174b38"/>
  <path d="M31 29c5.8 7.2 11.2 11.5 16.5 13" fill="none" stroke="#f4d08a" stroke-width="2.2" stroke-linecap="round" opacity=".55"/>
  <path d="M65 37c-5.5 6.7-10.5 10.8-15.1 12.3" fill="none" stroke="#8fb6a3" stroke-width="2.2" stroke-linecap="round" opacity=".5"/>
</svg>
